# xmcd
#
# Track frame offsets: 
#        150
#        20240
#        34423
#        49579
#        61599
#        77623
#        85479
#        101870
#        117187
#        133226
#        147504
#        167230
#        183411
#        198248
#        215257
#
# Disc length: 3158 seconds
#
# Revision: 1
# Processed by: cddbd v1.5.2PL0 Copyright (c) Steve Scherf et al.
# Submitted via: ExactAudioCopy v1.3
#
DISCID=da0c540f
DTITLE=Ella Fitzgerald - Ella Fitzgerald - The Legend - Irish Mail On 
DTITLE=Sunday
DYEAR=1900
DGENRE=Blues
TTITLE0=Let's call the Whole Thing Off
TTITLE1=They Can't Take That Away From Me
TTITLE2=Anything Goes
TTITLE3=In The Still Of The Night
TTITLE4=Every Time We Say Goodbye
TTITLE5=All Of You
TTITLE6=Begin The Beguine
TTITLE7=Get Out Of Town
TTITLE8=Let's Do It
TTITLE9=Dream A Little Dream Of Me
TTITLE10=Tonic - Just Talking
TTITLE11=Tonic - Love Love Love
TTITLE12=Tonic - Rock The Party
TTITLE13=Adam Burridge - Cold
TTITLE14=Adam Burridge - On My Own
EXTD=
EXTT0=
EXTT1=
EXTT2=
EXTT3=
EXTT4=
EXTT5=
EXTT6=
EXTT7=
EXTT8=
EXTT9=
EXTT10=
EXTT11=
EXTT12=
EXTT13=
EXTT14=
PLAYORDER=
